{"title":"Modern Family S05E23 WEB-DL x264 AAC [GWC].mp4","uid":10153849,"size":113143401,"categoryP":"video","categoryS":"tv_shows","magnet":"?xt=urn:btih:0f8991abf09c6efd9de2bb287986899b879f40b4&amp;dn=Modern+Family+S05E23+WEB-DL+x264+AAC+%5BGWC%5D.mp4&amp;tr=udp%3A%2F%2Ftracker.openbittorrent.com%3A80&amp;tr=udp%3A%2F%2Fopen.demonii.com%3A1337&amp;tr=udp%3A%2F%2Ftracker.coppersurfer.tk%3A6969&amp;tr=udp%3A%2F%2Fexodus.desync.com%3A6969","seeders":1,"leechers":0,"uploader":"canc232","files":1,"time":1400131570,"description":"Modern Family S05E23 WEB-DL x264 AAC [GWC] \n\n\nSTORYLINE :\nThree different, but related families face trials and tribulations in their own uniquely comedic ways.\n\n\nSCREENS : &lt;a href=&quot;\nhttp://i.imgur.com/ACDQNkk.jpg&quot; rel=&quot;nofollow&quot; target=&quot;_NEW&quot;&gt;\nhttp://i.imgur.com/ACDQNkk.jpg&lt;/a&gt; &lt;a href=&quot;\nhttp://i.imgur.com/D7vfCAI.jpg&quot; rel=&quot;nofollow&quot; target=&quot;_NEW&quot;&gt;\nhttp://i.imgur.com/D7vfCAI.jpg&lt;/a&gt; &lt;a href=&quot;\nhttp://i.imgur.com/46az0lE.jpg&quot; rel=&quot;nofollow&quot; target=&quot;_NEW&quot;&gt;\nhttp://i.imgur.com/46az0lE.jpg&lt;/a&gt;\n\n\nMEDIA INFO :\nGeneral \nFormat : MPEG-4 \nFormat profile : Base Media \nFile size : 108 MiB \nDuration : 21mn 38s \nOverall bit rate mode : Variable \nOverall bit rate : 697 Kbps \n\nVideo \nFormat : AVC \nFormat profile : &lt;a class=&quot;__cf_email__&quot; href=&quot;/cdn-cgi/l/email-protection&quot; data-cfemail=&quot;86ceefe1eec6cab5a8b6&quot;&gt;[email&amp;#160;protected]&lt;/a&gt;&lt;script cf-hash='f9e31' type=&quot;text/javascript&quot;&gt;\n/* &lt;![CDATA[ */!function(){try{var t=&quot;currentScript&quot;in document?document.currentScript:function(){for(var t=document.getElementsByTagName(&quot;script&quot;),e=t.length;e--;)if(t[e].getAttribute(&quot;cf-hash&quot;))return t[e]}();if(t&amp;&amp;t.previousSibling){var e,r,n,i,c=t.previousSibling,a=c.getAttribute(&quot;data-cfemail&quot;);if(a){for(e=&quot;&quot;,r=parseInt(a.substr(0,2),16),n=2;a.length-n;n+=2)i=parseInt(a.substr(n,2),16)^r,e+=String.fromCharCode(i);e=document.createTextNode(e),c.parentNode.replaceChild(e,c)}}}catch(u){}}();/* ]]&gt; */&lt;/script&gt; \nFormat settings, CABAC : Yes \nFormat settings, ReFrames : 4 frames \nDuration : 21mn 38s \nBit rate : 634 Kbps \nMaximum bit rate : 2 987 Kbps \nWidth : 720 pixels \nHeight : 404 pixels \nDisplay aspect ratio : 16:9 \nFrame rate mode : Constant \nFrame rate : 23.976 fps \nStream size : 98.1 MiB (91%) \nTitle : Modern Family S05E23 WEB-DL x264 AAC [GWC] \nWriting library : x264 core\n\nAudio \nFormat : AAC \nFormat profile : HE-AAC / LC \nDuration : 21mn 38s \nBit rate mode : Variable \nChannel(s) : 2 channels \nSampling rate : 48.0 KHz / 24.0 KHz \nStream size : 9.28 MiB (9%) \nLanguage : English \n\n","torrent":{"xt":"urn:btih:0f8991abf09c6efd9de2bb287986899b879f40b4","amp;dn":"Modern+Family+S05E23+WEB-DL+x264+AAC+%5BGWC%5D.mp4","amp;tr":["udp%3A%2F%2Ftracker.openbittorrent.com%3A80","udp%3A%2F%2Fopen.demonii.com%3A1337","udp%3A%2F%2Ftracker.coppersurfer.tk%3A6969","udp%3A%2F%2Fexodus.desync.com%3A6969"],"infoHash":"0f8991abf09c6efd9de2bb287986899b879f40b4","infoHashBuffer":{"type":"Buffer","data":[15,137,145,171,240,156,110,253,157,226,187,40,121,134,137,155,135,159,64,180]},"announce":[],"urlList":[]}}